<svg xmlns="http://www.w3.org/2000/svg" viewBox="0 0 316 48"><g fill="#D10"><path d="M87.1 8.3h-4.5L77 32.4 71.4 8.5v-.2h-5l-5.6 23.9-5.4-23.9h-4.6l7.3 31v.2h5.2l5.5-23.7 5.5 23.5.1.2h5.2L87 8.6M97 15.1c-3.3 0-5.9 1.1-7.7 3.2-1.8 2.1-2.7 5.3-2.7 9.5 0 4.1.9 7.3 2.7 9.4 1.8 2.1 4.4 3.2 7.8 3.2 3.4 0 6-1.1 7.7-3.2 1.8-2.1 2.6-5.2 2.6-9.3 0-4.1-.9-7.3-2.6-9.4-1.8-2.4-4.4-3.4-7.8-3.4zm4.5 19.2c-1 1.4-2.4 2.1-4.5 2.1s-3.6-.7-4.6-2.1c-1-1.4-1.4-3.6-1.4-6.6 0-3.1.5-5.3 1.5-6.7 1-1.4 2.5-2.1 4.5-2.1s3.4.7 4.4 2c1 1.4 1.5 3.7 1.5 6.7.1 3.1-.4 5.3-1.4 6.7zM111.7 6h4.3v33.5h-4.3zM134.5 6.2c-1.3-.6-2.9-.9-4.6-.9-2.7 0-4.6.7-5.7 2.1-1.1 1.4-1.6 3.5-1.6 6.4v2h-3.4v3.7h3.4v20.1h4.3V19.4h5.1v-3.7h-5.1v-2c0-1.9.2-3.1.7-3.7.4-.6 1.3-.9 2.5-.9.5 0 1.1.1 1.7.2.6.2 1.1.3 1.5.6l.3.1 1.2-3.8h-.3zM146.2 15.4c-1.5 0-2.8.4-4 1.3-1 .7-2 1.6-2.9 2.5v-3.4H135v23.8h4.3V23.3c1.3-1.3 2.5-2.3 3.5-2.8s2.1-.8 3.1-.8c.7 0 1.3.1 1.7.2l.3.1.9-4.2-.2-.1c-.6-.2-1.4-.3-2.4-.3zM166.3 16.9c-1.5-1.2-3.9-1.9-7.3-1.9-2.2 0-4 .4-5.5 1.1-1.5.7-2.6 1.7-3.3 3.1l-.1.2 3.5 2.2.1-.2c.3-.6.9-1.2 1.7-1.7.8-.5 2-.8 3.5-.8 1.7 0 3 .3 4 .9.9.6 1.4 1.8 1.4 3.4v.9l-5.4.5c-2.3.3-4 .7-5.2 1.3-1.2.6-2.2 1.5-2.8 2.6-.6 1.1-1 2.5-1 4.1 0 2.2.6 4 1.9 5.4 1.2 1.4 3 2.1 5.3 2.1 1.5 0 2.9-.4 4.1-1.1 1.1-.6 2.1-1.4 3.2-2.2v2.6h4.3v-16c-.2-3-1-5.2-2.4-6.5zm-8.2 19.4c-1.3 0-2.3-.3-2.9-.8-.6-.6-.9-1.5-.9-2.8 0-1.4.5-2.4 1.4-3.1 1-.7 2.7-1.2 5.2-1.4l3.4-.3V33c-.5.4-.9.7-1.4 1.1-.5.4-1 .8-1.5 1.1-.5.3-1.1.6-1.6.8-.6.2-1.2.3-1.7.3zM203.3 18.7c-.4-1.2-1.1-2.1-2-2.7-.9-.6-2.1-.9-3.5-.9-1.6 0-3 .5-4.3 1.4-1.1.8-2.3 1.8-3.4 2.9-.3-1.4-1-2.5-1.8-3.1-1-.8-2.3-1.1-3.9-1.1-1.5 0-2.8.4-4.1 1.3-1.1.7-2 1.5-2.9 2.4v-3.1h-4.3v23.8h4.3V22.9c1.2-1.2 2.3-2.1 3.3-2.7 1.1-.6 2-1 2.7-1 .8 0 1.4.1 1.8.4.4.3.6.8.8 1.5.2.7.3 2.2.3 4.4v14h4.3V22.9c1.5-1.4 2.7-2.4 3.6-2.9.9-.5 1.7-.8 2.4-.8.8 0 1.5.1 1.9.4.4.2.7.7.8 1.4.2.7.3 2.2.3 4.5v14h4.3V23.7c.1-2.1-.1-3.8-.6-5z"/></g><g fill="#FF7D00"><path d="M223 8.3h-5.6l-10.6 31.2h4.7l2.6-8h12l2.6 8h4.8L223 8.5v-.2zm1.6 19h-9.2l4.6-13.9 4.6 13.9zM236.4 6h4.3v33.5h-4.3zM256.6 15.1c-1.4 0-2.8.3-4 .9-1 .5-2 1.1-2.8 1.8v-2h-4.3V48h4.3V37.9c1.9 1.5 4 2.3 6.2 2.3 3 0 5.3-1.2 7-3.5 1.7-2.3 2.5-5.4 2.5-9.3 0-3.9-.8-7-2.3-9.1-1.6-2.2-3.8-3.2-6.6-3.2zm4.5 12.4c0 3-.5 5.3-1.6 6.7-1.1 1.4-2.4 2.1-4 2.1-1.9 0-3.8-.8-5.7-2.4V21.8c.8-.7 1.7-1.4 2.7-2 1.1-.6 2.2-.9 3.3-.9 3.6.1 5.3 2.9 5.3 8.6zM281.3 15.1c-1.5 0-3 .4-4.4 1.3-1.2.7-2.4 1.6-3.3 2.5V6h-4.3v33.5h4.3V22.9c1.2-1 2.4-1.9 3.6-2.6 1.2-.7 2.3-1.1 3.3-1.1.9 0 1.6.2 2.1.5.4.3.8.8 1 1.5.2.7.3 2.2.3 4.4v14h4.3V23.7c0-3.1-.5-5.3-1.6-6.7-1.3-1.3-3-1.9-5.3-1.9zM308.2 16.9c-1.5-1.2-3.9-1.9-7.3-1.9-2.2 0-4 .4-5.5 1.1-1.5.7-2.6 1.7-3.3 3.1l-.1.2 3.5 2.2.1-.2c.3-.6.9-1.2 1.7-1.7.8-.5 2-.8 3.5-.8 1.7 0 3 .3 4 .9.9.6 1.4 1.8 1.4 3.4v.9l-5.4.5c-2.3.3-4 .7-5.2 1.3-1.2.6-2.2 1.5-2.8 2.6-.6 1.1-1 2.5-1 4.1 0 2.2.6 4 1.9 5.4 1.2 1.4 3 2.1 5.3 2.1 1.5 0 2.9-.4 4.1-1.1 1.1-.6 2.1-1.4 3.2-2.2v2.6h4.3v-16c-.1-3-.9-5.2-2.4-6.5zm-8.1 19.4c-1.3 0-2.3-.3-2.9-.8-.6-.6-.9-1.5-.9-2.8 0-1.4.5-2.4 1.4-3.1 1-.7 2.7-1.2 5.2-1.4l3.4-.3V33c-.5.4-.9.7-1.4 1.1-.5.4-1 .8-1.5 1.1-.5.3-1.1.6-1.6.8-.7.2-1.2.3-1.7.3z"/></g><g><path fill="#F16850" d="M45.6 31l-9.5 2 1 9.4-8.9-3.8-4.9 8.2-4.9-8.2-8.9 3.8 1-9.4L1 31l6.5-7.1L1 16.8l9.5-2-1-9.4 8.9 3.8L23.3 1l4.9 8.2 8.9-3.8-1 9.4 9.5 2-6.5 7.1"/><path fill="#FD694F" d="M23.3 15.3l-4.9-6.1-8.9-3.8 5.3 7"/><path fill="#FF3413" d="M10.5 14.8l-9.5 2 6.5 7.1 7.5-2.7"/><path fill="#DC1D23" d="M14.8 12.4l-5.3-7 1 9.4 4.5 6.4"/><path fill="#FF9281" d="M28.2 9.2L23.3 1l-4.9 8.2 4.9 6.1"/><path fill="#FF8B79" d="M39.1 23.9l6.5-7.1-9.5-2-4.6 6.4"/><path fill="#FD694F" d="M31.5 21.2l4.6-6.4 1-9.4-5.3 7"/><path fill="#EF5240" d="M31.8 12.4l5.3-7-8.9 3.8-4.9 6.1"/><path fill="#FF482C" d="M37 28.1l8.6 2.9-6.5-7.1-7.6-2.7"/><path fill="#EC2101" d="M15 21.2l-7.5 2.7L1 31l8.6-2.9"/><path fill="#D21C22" d="M23.3 37.9v8.9l4.9-8.2.2-8"/><path fill="#C90901" d="M37 28.1l-8.6 2.5 7.7 2.4 9.5-2"/><path fill="#EC2101" d="M28.2 38.6l8.9 3.8-1-9.4-7.7-2.4"/><path fill="#B6171E" d="M9.6 28.1L1 31l9.5 2 7.7-2.4"/><path fill="#B4151B" d="M18.2 30.6l.2 8 4.9 8.2v-8.9"/><path fill="#D21C22" d="M10.5 33l-1 9.4 8.9-3.8-.2-8"/><path fill="#E63320" d="M31.5 21.2l.3-8.8-8.5 2.9v8.6"/><path fill="#FF4527" d="M23.3 15.3l-8.5-2.9.2 8.8 8.3 2.7"/><path fill="#FF9281" d="M18.2 30.6l5.1 7.3 5.1-7.3-5.1-6.7"/><path fill="#FD684D" d="M23.3 23.9l5.1 6.7 8.6-2.5-5.5-6.9"/><path fill="#FD745C" d="M15 21.2l-5.4 6.9 8.6 2.5 5.1-6.7"/></g><g><path d="M312.1 16.9c-.2 0-.4 0-.6-.1s-.4-.1-.6-.2c-.2-.1-.3-.2-.5-.4-.1-.1-.3-.3-.4-.5-.1-.2-.2-.4-.2-.6-.1-.2-.1-.4-.1-.6 0-.2 0-.4.1-.6.1-.2.1-.4.2-.6.1-.2.2-.3.4-.5.1-.1.3-.3.5-.4.2-.1.4-.2.6-.2.2-.1.4-.1.6-.1.2 0 .4 0 .6.1.2.1.4.1.6.2s.3.2.5.4.3.3.4.5c.1.2.2.4.2.6.1.2.1.4.1.6 0 .2 0 .4-.1.6-.1.2-.1.4-.2.6-.1.2-.2.3-.4.5-.1.1-.3.3-.5.4-.2.1-.4.2-.6.2-.2.1-.4.1-.6.1zm0-.4c.2 0 .4 0 .5-.1.2 0 .3-.1.5-.2.1-.1.3-.2.4-.3.1-.1.2-.2.3-.4.1-.1.1-.3.2-.5s.1-.3.1-.5c0-.3-.1-.5-.1-.7-.1-.2-.2-.4-.4-.6-.2-.2-.4-.3-.6-.4-.2-.1-.5-.2-.8-.2-.3 0-.5.1-.7.2-.2.1-.4.2-.6.4-.2.2-.3.4-.4.6-.1.2-.1.5-.1.7 0 .2 0 .3.1.5 0 .2.1.3.2.5.1.1.2.3.3.4s.2.2.4.3c.1.1.3.1.5.2-.2.1 0 .1.2.1zm-.9-.7v-2.5H312.4c.1 0 .2.1.3.1l.2.2c0 .1.1.2.1.4s0 .4-.1.5-.2.2-.3.2l.7 1h-.6l-.6-.9h-.3v.9h-.6zm.5-1.4h.5c.1 0 .1 0 .1-.1l.1-.1V14v-.2s0-.1-.1-.1c0 0-.1 0-.1-.1H311.6v.8z" fill="#FF943A"/></g></svg>