<svg id="Layer_1" data-name="Layer 1" xmlns="http://www.w3.org/2000/svg" viewBox="0 0 881.96 148.93"><defs><style>.cls-1,.cls-3{fill:#fff;}.cls-2{fill:none;}.cls-2,.cls-3{stroke:#fff;stroke-miterlimit:10;stroke-width:4px;}</style></defs><title>InternBlitzWhite</title><path class="cls-1" d="M263.16,335.5V228.86h18.9V335.5Z" transform="translate(-54.88 -213.21)"/><path class="cls-1" d="M362,261.78q6.55,7,6.56,22.6V335.5H350.32V284.23q0-7.91-3.41-11.24t-10.44-3.33a17.06,17.06,0,0,0-9.16,2.49,18.12,18.12,0,0,0-6.45,7v56.4H302.63V256.25h17.14l.59,9.16a29,29,0,0,1,10.11-7.87,30,30,0,0,1,12.89-2.75Q355.44,254.79,362,261.78Z" transform="translate(-54.88 -213.21)"/><path class="cls-1" d="M423.48,321.14v14.06A37.41,37.41,0,0,1,411.62,337q-9.67,0-15.23-5.35t-5.57-17.07V269.73H377.93V256.25h12.89V236.91h18.24v19.34H423v13.48H409.06v43.58q0,5,2.05,6.77t6.15,1.79A28.75,28.75,0,0,0,423.48,321.14Z" transform="translate(-54.88 -213.21)"/><path class="cls-1" d="M503.39,301.59H451.76a26.15,26.15,0,0,0,3.15,10.77,19.24,19.24,0,0,0,7.14,7.32,20.42,20.42,0,0,0,10.51,2.64,23.76,23.76,0,0,0,19.77-9.67l9.74,9.45a34.06,34.06,0,0,1-12,10.62q-7.69,4.25-18.6,4.25a39.53,39.53,0,0,1-20.21-5A34,34,0,0,1,438,318.21a41.14,41.14,0,0,1-4.61-19.56v-3a47,47,0,0,1,4.69-21.5A34.84,34.84,0,0,1,451,259.84a34.47,34.47,0,0,1,18.46-5.05q11.21,0,18.82,4.91a29.83,29.83,0,0,1,11.39,13.73,51.76,51.76,0,0,1,3.77,20.47Zm-18-14.58q-.37-7.69-4.17-12.63t-11.87-4.94a14.69,14.69,0,0,0-11.57,5q-4.39,5-5.64,14h33.25Z" transform="translate(-54.88 -213.21)"/><path class="cls-1" d="M556.09,255.08a14.86,14.86,0,0,1,2.89.66l-.15,17.21a45.91,45.91,0,0,0-7.25-.59q-12.23,0-16.41,9.16v54H516.94V256.25H534.3l.51,8.94a22.15,22.15,0,0,1,7.47-7.69,19.52,19.52,0,0,1,10.33-2.71A23.68,23.68,0,0,1,556.09,255.08Z" transform="translate(-54.88 -213.21)"/><path class="cls-1" d="M629.11,261.78q6.55,7,6.55,22.6V335.5H617.43V284.23q0-7.91-3.41-11.24t-10.44-3.33a17.06,17.06,0,0,0-9.16,2.49,18.13,18.13,0,0,0-6.45,7v56.4H569.75V256.25h17.14l.59,9.16a29,29,0,0,1,10.11-7.87,30,30,0,0,1,12.89-2.75Q622.56,254.79,629.11,261.78Z" transform="translate(-54.88 -213.21)"/><path class="cls-1" d="M727.07,289a26.49,26.49,0,0,1,4.54,15.34q0,15.16-9.74,23.18t-27.39,8H655.15V228.86h36.62q18,0,27.69,7.14t9.67,21.72a23.12,23.12,0,0,1-4,13.33A24.87,24.87,0,0,1,713.67,280Q722.53,282.33,727.07,289Zm-53-44.79v29.52h17.8q8.72,0,13.51-3.88t4.8-10.91q0-7.76-4.47-11.24t-14-3.48ZM708,315.91q4.73-4.36,4.72-11.61,0-16.7-17.43-16.7H674.12v32.67h20.36Q703.27,320.26,708,315.91Z" transform="translate(-54.88 -213.21)"/><path class="cls-1" d="M749.49,335.5V223h18.24V335.5Z" transform="translate(-54.88 -213.21)"/><path class="cls-1" d="M804.71,228.67a9.41,9.41,0,0,1,2.78,7,9.2,9.2,0,0,1-2.78,6.88,11.92,11.92,0,0,1-15.09,0,9.16,9.16,0,0,1-2.78-6.92,9.41,9.41,0,0,1,2.78-7,11.73,11.73,0,0,1,15.09,0ZM788,335.5V256.25h18.24V335.5Z" transform="translate(-54.88 -213.21)"/><path class="cls-1" d="M862.5,321.14v14.06A37.41,37.41,0,0,1,850.63,337q-9.67,0-15.23-5.35t-5.57-17.07V269.73H816.94V256.25h12.89V236.91h18.24v19.34H862v13.48H848.07v43.58q0,5,2.05,6.77t6.15,1.79A28.75,28.75,0,0,0,862.5,321.14Z" transform="translate(-54.88 -213.21)"/><path class="cls-1" d="M936.84,320.85V335.5H872.31V323.63L912.16,271h-39V256.25H935.3v11.43l-40.14,53.17Z" transform="translate(-54.88 -213.21)"/><path class="cls-2" d="M99.54,301.3a14.1,14.1,0,0,0-6.85-2.06,42.93,42.93,0,0,0-11.65.57,86.47,86.47,0,0,0-18.39,5.92,30.45,30.45,0,0,0-3.86,7.36c-3.9,10.86-2.1,25.86,7.9,35.08a30.75,30.75,0,0,0,15.69,7.53,51.74,51.74,0,0,0,16-17.44,50.57,50.57,0,0,0,5.46-15.37c1-4.91,2.67-13.53-1.2-18.65A14.09,14.09,0,0,0,99.54,301.3Z" transform="translate(-54.88 -213.21)"/><path class="cls-2" d="M65.9,305.68c-1.46.21-3.15.39-3.25.06-.15-.54,4-2.15,5-2.54a64.81,64.81,0,0,1,26.6-3.85,63.66,63.66,0,0,1,9.12,1.42,42.75,42.75,0,0,1,1.69,14.3,48.82,48.82,0,0,1-1.57,9.54c-.95,3.84-1.39,5.78-2.46,7.28-3.66,5.17-11.32,5.4-13.69,5.39a30.49,30.49,0,0,0-.19-18c-1-2.82-2.52-7.23-7-10.47C74.28,304.52,67.58,305.41,65.9,305.68Z" transform="translate(-54.88 -213.21)"/><path class="cls-2" d="M87.44,221.5l.8-.91,1-.27c77.44-.22,112.66-.44,113.83-.66a2.85,2.85,0,0,1,1.07,0,3.71,3.71,0,0,1,2.18,1.48l1.07,1.45.11,1c9.35,36.48,11.12,64.18,11.23,81.15.07,11.35-.56,22.5-7.71,33.17a48.89,48.89,0,0,1-26.21,19.35A303.26,303.26,0,0,1,154.39,360a349.7,349.7,0,0,1-38.57-1c-8-.54-18.45-1.41-30.75-2.91a8.94,8.94,0,0,1-1.82-.25,8,8,0,0,1,1.71,0c11.83-11.9,16.4-23,18.4-30.7,4.37-16.73-.48-28.46-9.83-72.89C90.78,239.11,88.72,228.4,87.44,221.5Z" transform="translate(-54.88 -213.21)"/><path class="cls-3" d="M209.08,230.15,93.6,252.49l-7.08-29.56a1.82,1.82,0,0,1,.14-1.86h0l1.49-.75c.88-.43,30.72-1.86,115-5.1a4.43,4.43,0,0,1,4.11,2.83Z" transform="translate(-54.88 -213.21)"/><rect class="cls-1" x="128.57" y="261.92" width="61.41" height="3.64" rx="1.82" ry="1.82" transform="translate(-60.27 -209.88) rotate(-1.18)"/><rect class="cls-1" x="129.73" y="279.36" width="61.41" height="3.64" rx="1.82" ry="1.82" transform="translate(-60.63 -209.85) rotate(-1.18)"/><rect class="cls-1" x="129.73" y="296.8" width="61.41" height="3.64" rx="1.82" ry="1.82" transform="translate(-60.99 -209.85) rotate(-1.18)"/><rect class="cls-1" x="129.73" y="315.41" width="61.41" height="3.64" rx="1.82" ry="1.82" transform="translate(-61.37 -209.85) rotate(-1.18)"/></svg>